<svg width="21" height="17" viewBox="0 0 21 17" fill="none" xmlns="http://www.w3.org/2000/svg">
<path d="M2.50493 0.5C0.615308 0.5 -0.220362 2.87875 1.25408 4.06057L15.3511 15.3598C16.5451 16.3168 18.3276 15.6332 18.5755 14.1232L20.4304 2.82398C20.6303 1.60638 19.6907 0.5 18.4568 0.5H2.50493Z" fill="white"/>
<path d="M2.50493 0.5C0.615308 0.5 -0.220362 2.87875 1.25408 4.06057L15.3511 15.3598C16.5451 16.3168 18.3276 15.6332 18.5755 14.1232L20.4304 2.82398C20.6303 1.60638 19.6907 0.5 18.4568 0.5H2.50493Z" stroke="white"/>
<path d="M2.50493 0.5C0.615308 0.5 -0.220362 2.87875 1.25408 4.06057L15.3511 15.3598C16.5451 16.3168 18.3276 15.6332 18.5755 14.1232L20.4304 2.82398C20.6303 1.60638 19.6907 0.5 18.4568 0.5H2.50493Z"/>
</svg>
